<?xml version="1.0" encoding="utf-8"?>
<svg version="1.1" xmlns:xlink="http://www.w3.org/1999/xlink" width="21px" height="22px" xmlns="http://www.w3.org/2000/svg">
  <defs>
    <mask fill="white" id="clip9">
      <path d="M 0 18  L 0 4  C 0 1.7599999999999998  1.4784000000000042 0  3.36 0  L 17.64 0  C 19.521599999999996 0  21 1.7599999999999998  21 4  L 21 18  C 21 20.240000000000002  19.521599999999996 22  17.64 22  L 10.08 22  L 3.36 22  C 1.4784000000000042 22  0 20.240000000000002  0 18  Z " fill-rule="evenodd" />
    </mask>
  </defs>
  <g transform="matrix(1 0 0 1 -102 -6 )">
    <path d="M 0 18  L 0 4  C 0 1.7599999999999998  1.4784000000000042 0  3.36 0  L 17.64 0  C 19.521599999999996 0  21 1.7599999999999998  21 4  L 21 18  C 21 20.240000000000002  19.521599999999996 22  17.64 22  L 10.08 22  L 3.36 22  C 1.4784000000000042 22  0 20.240000000000002  0 18  Z " fill-rule="nonzero" fill="#ffffff" stroke="none" transform="matrix(1 0 0 1 102 6 )" />
    <path d="M 0 18  L 0 4  C 0 1.7599999999999998  1.4784000000000042 0  3.36 0  L 17.64 0  C 19.521599999999996 0  21 1.7599999999999998  21 4  L 21 18  C 21 20.240000000000002  19.521599999999996 22  17.64 22  L 10.08 22  L 3.36 22  C 1.4784000000000042 22  0 20.240000000000002  0 18  Z " stroke-width="2" stroke="#7f7f7f" fill="none" transform="matrix(1 0 0 1 102 6 )" mask="url(#clip9)" />
  </g>
</svg>