<?xml version="1.0" encoding="utf-8"?>
<svg version="1.1" xmlns:xlink="http://www.w3.org/1999/xlink" width="32px" height="22px" xmlns="http://www.w3.org/2000/svg">
  <defs>
    <mask fill="white" id="clip10">
      <path d="M 0 18  L 0 4  C 0 1.7599999999999998  2.2528000000000064 0  5.12 0  L 26.88 0  C 29.747199999999992 0  32 1.7599999999999998  32 4  L 32 18  C 32 20.240000000000002  29.747199999999992 22  26.88 22  L 15.36 22  L 5.12 22  C 2.2528000000000064 22  0 20.240000000000002  0 18  Z " fill-rule="evenodd" />
    </mask>
  </defs>
  <g transform="matrix(1 0 0 1 -370 -6 )">
    <path d="M 0 18  L 0 4  C 0 1.7599999999999998  2.2528000000000064 0  5.12 0  L 26.88 0  C 29.747199999999992 0  32 1.7599999999999998  32 4  L 32 18  C 32 20.240000000000002  29.747199999999992 22  26.88 22  L 15.36 22  L 5.12 22  C 2.2528000000000064 22  0 20.240000000000002  0 18  Z " fill-rule="nonzero" fill="#ffffff" stroke="none" transform="matrix(1 0 0 1 370 6 )" />
    <path d="M 0 18  L 0 4  C 0 1.7599999999999998  2.2528000000000064 0  5.12 0  L 26.88 0  C 29.747199999999992 0  32 1.7599999999999998  32 4  L 32 18  C 32 20.240000000000002  29.747199999999992 22  26.88 22  L 15.36 22  L 5.12 22  C 2.2528000000000064 22  0 20.240000000000002  0 18  Z " stroke-width="2" stroke="#7f7f7f" fill="none" transform="matrix(1 0 0 1 370 6 )" mask="url(#clip10)" />
  </g>
</svg>