<?xml version="1.0" encoding="utf-8"?>
<svg version="1.1" xmlns:xlink="http://www.w3.org/1999/xlink" width="71px" height="20px" xmlns="http://www.w3.org/2000/svg">
  <g transform="matrix(1 0 0 1 -309 -30 )">
    <path d="M 372.1511766742003 30.5  C 372.1511766742003 30.5  373.7262471014495 30.72184090524636  373.7262471014495 30.72184090524636  C 373.7262471014495 30.72184090524636  379.45450184690606 40  379.45450184690606 40  C 379.45450184690606 40  373.7262471014495 49.27815909475364  373.7262471014495 49.27815909475364  C 373.7262471014495 49.27815909475364  372.1511766742003 49.5  372.1511766742003 49.5  C 372.1511766742003 49.5  309.5 49.5  309.5 49.5  C 309.5 49.5  309.5 30.5  309.5 30.5  C 309.5 30.5  372.1511766742003 30.5  372.1511766742003 30.5  Z " fill-rule="nonzero" fill="#ff6a00" stroke="none" fill-opacity="0.047058823529411764" />
    <path d="M 372.1511766742003 30.5  C 372.1511766742003 30.5  373.7262471014495 30.72184090524636  373.7262471014495 30.72184090524636  C 373.7262471014495 30.72184090524636  379.45450184690606 40  379.45450184690606 40  C 379.45450184690606 40  373.7262471014495 49.27815909475364  373.7262471014495 49.27815909475364  C 373.7262471014495 49.27815909475364  372.1511766742003 49.5  372.1511766742003 49.5  C 372.1511766742003 49.5  309.5 49.5  309.5 49.5  C 309.5 49.5  309.5 30.5  309.5 30.5  C 309.5 30.5  372.1511766742003 30.5  372.1511766742003 30.5  Z " stroke-width="1" stroke="#ff6a00" fill="none" />
  </g>
</svg>